<svg width="114" height="40" viewBox="0 0 114 40" fill="none" xmlns="http://www.w3.org/2000/svg">
<path d="M64.1383 27.585C64.1383 28.2635 64.1383 29.0911 64.1247 29.6882C64.0026 33.2567 61.5603 34.8442 57.8696 34.8442C54.6132 34.8442 52.6322 33.5145 52.3608 31.0314L52.3472 30.8279H55.8886L55.9158 31.0314C55.9972 31.7506 56.8384 32.1576 57.9782 32.1576C59.3486 32.1576 60.3391 31.5606 60.4476 30.0952C60.4612 29.7696 60.4883 29.254 60.4883 28.6705V28.3584L59.6742 29.566C59.0636 30.0138 58.2088 30.2445 57.1098 30.2445C54.1519 30.2445 52.1166 28.2228 52.1166 25.007C52.1166 21.14 54.4775 19.1997 57.2726 19.1997C58.1681 19.1997 59.2265 19.4032 59.7828 19.7289L60.5019 20.8958V19.4846H64.1654V27.585H64.1383ZM60.4748 24.6542V24.5864C60.4748 22.4019 59.3486 21.6692 58.2495 21.6692C56.8248 21.6692 55.8479 22.5104 55.8479 24.7221C55.8479 26.7574 56.8656 27.7343 58.1546 27.7343C59.4978 27.7479 60.4748 26.9338 60.4748 24.6542Z" fill="white"/>
<path d="M94.5181 27.1776V30.3527H90.8546V15.373H94.5181V24.0433L98.3444 19.4707H102.646L98.0324 24.4639L102.7 30.3527H98.1952L95.2915 26.3228L94.5181 27.1776Z" fill="white"/>
<path d="M112.781 22.646H109.172C109.009 21.8861 108.643 21.4655 107.992 21.4655C107.476 21.4655 107.11 21.7911 107.11 22.266C107.11 22.8766 107.598 23.2837 109.674 23.7993C111.655 24.2877 113.053 25.1426 113.053 27.2457C113.053 29.5659 110.868 30.6514 108.236 30.6514C105.278 30.6514 103.256 29.4302 102.971 26.9879H106.581C106.784 27.8291 107.435 28.3719 108.209 28.3719C108.86 28.3719 109.376 28.1005 109.376 27.5306C109.376 26.8386 108.684 26.4451 106.743 25.9974C104.667 25.5089 103.419 24.5455 103.419 22.7002C103.419 20.5428 105.292 19.1996 108.195 19.1996C110.922 19.186 112.496 20.6785 112.781 22.646Z" fill="white"/>
<path d="M13.3107 5.54949L13.3378 5.75302H9.67434L9.63363 5.54949C9.32156 4.04339 8.41247 3.32426 6.91993 3.32426C5.1696 3.32426 3.83989 4.78965 3.83989 7.829C3.83989 11.3704 5.30528 12.578 6.9335 12.578C8.3582 12.578 9.28085 11.696 9.57936 10.1492L9.62007 9.94568H13.2836L13.2564 10.1492C12.9036 13.5278 10.3256 15.2645 6.79782 15.2645C3.03934 15.2645 0 12.8222 0 8.04609C0 3.16144 3.13432 0.637695 6.94707 0.637695C10.9633 0.637695 13.0258 2.76795 13.3107 5.54949Z" fill="white"/>
<path d="M26.0515 9.53889C26.0515 13.026 23.772 15.2648 20.2035 15.2648C16.635 15.2648 14.3555 13.026 14.3555 9.53889C14.3555 6.03822 16.635 3.81299 20.2035 3.81299C23.772 3.81299 26.0515 6.03822 26.0515 9.53889ZM22.3066 9.53889C22.3066 7.35437 21.5061 6.29602 20.2035 6.29602C18.9009 6.29602 18.1004 7.35437 18.1004 9.53889C18.1004 11.6963 18.9009 12.7818 20.2035 12.7818C21.5061 12.7818 22.3066 11.6963 22.3066 9.53889Z" fill="white"/>
<path d="M38.6973 8.83333V14.9934H35.0338V9.44391C35.0338 9.09113 35.0338 8.50769 34.9931 7.95138C34.9117 6.90661 34.3418 6.29602 33.2428 6.29602C32.1166 6.29602 31.3296 7.3815 31.3296 9.8374V14.9799H27.6661V4.09793H31.3296V5.79399L32.3066 4.45071C32.985 4.04365 33.7584 3.81299 34.7489 3.81299C36.9877 3.81299 38.3174 4.87133 38.6023 6.77092C38.6702 7.31366 38.6973 7.95138 38.6973 8.83333Z" fill="white"/>
<path d="M49.8236 7.27266H46.2144C46.0515 6.51283 45.6852 6.0922 45.0339 6.0922C44.5183 6.0922 44.1519 6.41785 44.1519 6.89274C44.1519 7.50333 44.6404 7.91038 46.7164 8.42598C48.6974 8.91445 50.0949 9.76927 50.0949 11.8724C50.0949 14.1926 47.9104 15.2781 45.2781 15.2781C42.3202 15.2781 40.2985 14.0569 40.0135 11.6146H43.6228C43.8263 12.4558 44.4776 12.9986 45.251 12.9986C45.9023 12.9986 46.4179 12.7272 46.4179 12.1573C46.4179 11.4653 45.7259 11.0718 43.7856 10.6241C41.7096 10.1356 40.4613 9.17225 40.4613 7.32694C40.4613 5.16955 42.3338 3.82626 45.2374 3.82626C47.9647 3.8127 49.5386 5.30523 49.8236 7.27266Z" fill="white"/>
<path d="M62.3744 14.9793H58.7109V13.1476L57.7339 14.6401C57.0555 15.0472 56.2821 15.2779 55.2916 15.2779C53.0528 15.2779 51.6824 14.016 51.4381 12.5234C51.3567 11.9671 51.3296 11.343 51.3296 10.461V4.09741H54.9931V9.64693C54.9931 9.99971 55.0202 10.5832 55.0745 11.1395C55.1966 12.1842 55.6851 12.7948 56.852 12.7948C58.0189 12.7948 58.7109 11.7093 58.7109 10.2711V4.09741H62.3744V14.9793Z" fill="white"/>
<path d="M68.1681 11.0719C68.1681 11.5875 68.1681 11.8046 68.2088 12.076C68.2767 12.5102 68.4531 12.6458 69.4164 12.6051V15.0882C68.738 15.156 68.0867 15.1967 67.2726 15.1967C65.5765 15.1967 64.6268 14.5183 64.5453 13.08C64.5046 12.5102 64.5046 11.9538 64.5046 11.1397V0H68.1681V11.0719Z" fill="white"/>
<path d="M75.1966 10.4746C75.1966 10.8409 75.1966 11.248 75.2238 11.5329C75.3052 12.632 75.658 12.8762 77.3812 12.7948V15.0743C76.662 15.1964 75.9972 15.2643 75.2238 15.2643C72.5101 15.2643 71.696 14.423 71.5739 12.7541C71.5332 12.1164 71.5332 11.6143 71.5332 11.0038V6.4583H69.7964V4.1788H71.5332V1.37012H75.1966V4.1788H77.6118V6.4583H75.2102V10.4746H75.1966Z" fill="white"/>
<path d="M85.0881 13.3923L84.6403 14.5321C83.8669 15.0206 82.9443 15.2648 81.9538 15.2648C80.1627 15.2648 78.4667 14.1386 78.4667 12.0491C78.4667 9.72885 80.6648 8.30416 84.3554 8.30416H85.0474V8.14134C85.0474 7.91067 85.0474 7.69358 85.0067 7.3408C84.9388 6.78449 84.4911 6.29602 83.7041 6.29602C82.8493 6.29602 82.3608 6.85233 82.293 7.78856L78.833 7.80213C78.8602 5.25125 81.1125 3.81299 83.8669 3.81299C87.3133 3.81299 88.4938 5.34623 88.6566 7.31366C88.6973 7.86997 88.7245 8.49412 88.7245 9.17254V12.2255C88.7245 13.0396 88.7652 13.7723 88.928 14.9799H85.3459L85.0881 13.3923ZM85.0474 11.0857V10.3666C83.392 10.2445 82.2116 10.6786 82.2116 11.7506C82.2116 12.4018 82.7272 12.7682 83.4599 12.7682C84.1926 12.7818 85.0474 12.2255 85.0474 11.0857Z" fill="white"/>
<path d="M76.947 25.8344H69.3622C69.5521 27.6525 70.3391 28.1546 71.3839 28.1546C72.4287 28.1546 73.0528 27.6254 73.2021 26.7841H76.7977C76.16 29.2536 74.1247 30.6376 71.3296 30.6376C68.2089 30.6376 65.7258 28.7787 65.7258 24.9524C65.7258 21.7774 67.9104 19.1858 71.5331 19.1858C75.1559 19.1858 77.0013 21.9538 77.0013 24.776C77.0013 25.1017 76.9877 25.468 76.947 25.8344ZM69.4843 23.582H73.1749C72.9714 22.293 72.3337 21.6688 71.3568 21.6688C70.407 21.6688 69.7285 22.2387 69.4843 23.582Z" fill="#23D9B7"/>
<path d="M89.1993 25.8344H81.6145C81.8044 27.6525 82.5914 28.1546 83.6362 28.1546C84.681 28.1546 85.3051 27.6254 85.4544 26.7841H89.0636C88.4259 29.2536 86.3906 30.6376 83.5955 30.6376C80.4747 30.6376 77.9917 28.7787 77.9917 24.9524C77.9917 21.7774 80.1762 19.1858 83.799 19.1858C87.4218 19.1858 89.2671 21.9538 89.2671 24.776C89.2536 25.1017 89.24 25.468 89.1993 25.8344ZM81.7366 23.582H85.4272C85.2237 22.293 84.586 21.6688 83.6091 21.6688C82.6457 21.6688 81.9808 22.2387 81.7366 23.582Z" fill="#23D9B7"/>
<path d="M79.023 23.582H75.8751V25.8208H79.023V23.582Z" fill="#23D9B7"/>
<path d="M66.6485 23.582H64.1383V25.8208H66.6485V23.582Z" fill="#23D9B7"/>
<path d="M90.8411 23.582H88.3309V25.8208H90.8411V23.582Z" fill="#23D9B7"/>
<path d="M77.3948 40.0001C70.5155 40.0001 67.1912 35.1154 67.042 34.9119L69.4029 33.3244C69.5115 33.4872 72.0759 37.1507 77.3812 37.1507C82.7 37.1507 85.3323 33.4736 85.4409 33.3108L87.7882 34.9119C87.6525 35.1425 84.2604 40.0001 77.3948 40.0001Z" fill="#23D9B7"/>
</svg>
