<svg width="136" height="48" viewBox="0 0 136 48" fill="none" xmlns="http://www.w3.org/2000/svg">
<path d="M76.9659 33.1019C76.9659 33.9161 76.9659 34.9093 76.9497 35.6257C76.8031 39.9079 73.8723 41.8129 69.4436 41.8129C65.5358 41.8129 63.1586 40.2173 62.833 37.2376L62.8167 36.9934H67.0664L67.0989 37.2376C67.1966 38.1006 68.2061 38.589 69.5738 38.589C71.2183 38.589 72.4069 37.8726 72.5372 36.1142C72.5535 35.7234 72.586 35.1047 72.586 34.4045V34.03L71.6091 35.4791C70.8764 36.0165 69.8506 36.2933 68.5318 36.2933C64.9822 36.2933 62.5399 33.8672 62.5399 30.0083C62.5399 25.3679 65.373 23.0396 68.7272 23.0396C69.8018 23.0396 71.0718 23.2838 71.7394 23.6746L72.6023 25.0748V23.3815H76.9985V33.1019H76.9659ZM72.5698 29.585V29.5036C72.5698 26.8821 71.2183 26.0029 69.8995 26.0029C68.1898 26.0029 67.0175 27.0124 67.0175 29.6664C67.0175 32.1087 68.2387 33.2811 69.7855 33.2811C71.3974 33.2973 72.5698 32.3204 72.5698 29.585Z" fill="#5207F2"/>
<path d="M113.422 32.6133V36.4233H109.026V18.4478H113.422V28.8521L118.013 23.365H123.175L117.639 29.3568L123.24 36.4233H117.834L114.35 31.5875L113.422 32.6133Z" fill="#5207F2"/>
<path d="M135.338 27.1748H131.007C130.811 26.263 130.372 25.7583 129.59 25.7583C128.971 25.7583 128.532 26.1491 128.532 26.719C128.532 27.4516 129.118 27.9401 131.609 28.5588C133.986 29.145 135.663 30.1708 135.663 32.6945C135.663 35.4788 133.042 36.7813 129.883 36.7813C126.334 36.7813 123.908 35.3159 123.566 32.3852H127.897C128.141 33.3946 128.923 34.0459 129.851 34.0459C130.632 34.0459 131.251 33.7203 131.251 33.0364C131.251 32.206 130.42 31.7339 128.092 31.1966C125.601 30.6104 124.103 29.4544 124.103 27.24C124.103 24.6511 126.35 23.0392 129.834 23.0392C133.107 23.0229 134.996 24.8139 135.338 27.1748Z" fill="#5207F2"/>
<path d="M15.9728 6.65929L16.0054 6.90352H11.6092L11.5604 6.65929C11.1859 4.85197 10.095 3.98901 8.30392 3.98901C6.20352 3.98901 4.60786 5.74749 4.60786 9.3947C4.60786 13.6444 6.36634 15.0935 8.3202 15.0935C10.0298 15.0935 11.137 14.0351 11.4952 12.179L11.5441 11.9347H15.9403L15.9077 12.179C15.4844 16.2332 12.3908 18.3173 8.15738 18.3173C3.64721 18.3173 0 15.3865 0 9.65522C0 3.79362 3.76119 0.765137 8.33649 0.765137C13.156 0.765137 15.6309 3.32144 15.9728 6.65929Z" fill="#5207F2"/>
<path d="M31.2618 11.4463C31.2618 15.6308 28.5264 18.3174 24.2442 18.3174C19.962 18.3174 17.2266 15.6308 17.2266 11.4463C17.2266 7.24548 19.962 4.5752 24.2442 4.5752C28.5264 4.5752 31.2618 7.24548 31.2618 11.4463ZM26.7679 11.4463C26.7679 8.82485 25.8073 7.55484 24.2442 7.55484C22.6811 7.55484 21.7204 8.82485 21.7204 11.4463C21.7204 14.0352 22.6811 15.3377 24.2442 15.3377C25.8073 15.3377 26.7679 14.0352 26.7679 11.4463Z" fill="#5207F2"/>
<path d="M46.4368 10.5996V17.9917H42.0406V11.3323C42.0406 10.909 42.0406 10.2088 41.9917 9.54127C41.894 8.28754 41.2102 7.55484 39.8913 7.55484C38.5399 7.55484 37.5955 8.85741 37.5955 11.8045V17.9754H33.1993V4.91712H37.5955V6.9524L38.7679 5.34046C39.582 4.85199 40.51 4.5752 41.6987 4.5752C44.3852 4.5752 45.9809 5.84521 46.3228 8.12471C46.4042 8.776 46.4368 9.54127 46.4368 10.5996Z" fill="#5207F2"/>
<path d="M59.7881 8.7271H55.4571C55.2617 7.81529 54.8221 7.31055 54.0405 7.31055C53.4218 7.31055 52.9822 7.70132 52.9822 8.2712C52.9822 9.00389 53.5683 9.49236 56.0595 10.1111C58.4367 10.6972 60.1138 11.723 60.1138 14.2468C60.1138 17.031 57.4924 18.3336 54.3336 18.3336C50.7841 18.3336 48.358 16.8682 48.0161 13.9374H52.3472C52.5914 14.9469 53.373 15.5982 54.301 15.5982C55.0826 15.5982 55.7013 15.2725 55.7013 14.5887C55.7013 13.7583 54.8709 13.2861 52.5426 12.7488C50.0514 12.1626 48.5534 11.0066 48.5534 8.79223C48.5534 6.20336 50.8004 4.59142 54.2848 4.59142C57.5575 4.57514 59.4462 6.36618 59.7881 8.7271Z" fill="#5207F2"/>
<path d="M74.8493 17.9753H70.4531V15.7772L69.2808 17.5683C68.4667 18.0567 67.5386 18.3335 66.35 18.3335C63.6634 18.3335 62.0189 16.8193 61.7258 15.0282C61.6281 14.3607 61.5956 13.6117 61.5956 12.5533V4.91699H65.9918V11.5764C65.9918 11.9997 66.0243 12.6999 66.0895 13.3675C66.236 14.6212 66.8222 15.3539 68.2224 15.3539C69.6227 15.3539 70.4531 14.0513 70.4531 12.3254V4.91699H74.8493V17.9753Z" fill="#5207F2"/>
<path d="M81.8017 13.2863C81.8017 13.905 81.8017 14.1655 81.8506 14.4912C81.932 15.0122 82.1436 15.175 83.2997 15.1262V18.1058C82.4856 18.1872 81.704 18.2361 80.7271 18.2361C78.6918 18.2361 77.5521 17.422 77.4544 15.696C77.4055 15.0122 77.4055 14.3446 77.4055 13.3677V0H81.8017V13.2863Z" fill="#5207F2"/>
<path d="M90.2359 12.5699C90.2359 13.0095 90.2359 13.498 90.2685 13.8399C90.3662 15.1588 90.7895 15.4518 92.8574 15.3541V18.0896C91.9944 18.2361 91.1966 18.3175 90.2685 18.3175C87.0121 18.3175 86.0351 17.308 85.8886 15.3053C85.8397 14.54 85.8397 13.9376 85.8397 13.2049V7.75036H83.7556V5.01495H85.8397V1.64453H90.2359V5.01495H93.1342V7.75036H90.2522V12.5699H90.2359Z" fill="#5207F2"/>
<path d="M102.106 16.0704L101.568 17.4381C100.64 18.0243 99.533 18.3174 98.3444 18.3174C96.1952 18.3174 94.1599 16.9659 94.1599 14.4585C94.1599 11.6742 96.7976 9.9646 101.226 9.9646H102.057V9.76922C102.057 9.49242 102.057 9.2319 102.008 8.80857C101.927 8.141 101.389 7.55484 100.445 7.55484C99.4191 7.55484 98.8329 8.22241 98.7515 9.34588L94.5995 9.36216C94.6321 6.30111 97.3349 4.5752 100.64 4.5752C104.776 4.5752 106.192 6.41508 106.388 8.776C106.437 9.44357 106.469 10.1926 106.469 11.0067V14.6702C106.469 15.6471 106.518 16.5263 106.713 17.9754H102.415L102.106 16.0704ZM102.057 13.3025V12.4395C100.07 12.293 98.6538 12.814 98.6538 14.1003C98.6538 14.8818 99.2725 15.3214 100.152 15.3214C101.031 15.3377 102.057 14.6702 102.057 13.3025Z" fill="#5207F2"/>
<path d="M92.3363 31.0012H83.2346C83.4626 33.183 84.4069 33.7855 85.6606 33.7855C86.9144 33.7855 87.6634 33.1505 87.8425 32.141H92.1572C91.392 35.1043 88.9497 36.7651 85.5955 36.7651C81.8506 36.7651 78.871 34.5345 78.871 29.9429C78.871 26.1328 81.4924 23.0229 85.8398 23.0229C90.1871 23.0229 92.4015 26.3445 92.4015 29.7312C92.4015 30.122 92.3852 30.5616 92.3363 31.0012ZM83.3811 28.2984H87.8099C87.5657 26.7516 86.8004 26.0026 85.6281 26.0026C84.4883 26.0026 83.6742 26.6864 83.3811 28.2984Z" fill="#23D9B7"/>
<path d="M107.039 31.0012H97.9373C98.1653 33.183 99.1096 33.7855 100.363 33.7855C101.617 33.7855 102.366 33.1505 102.545 32.141H106.876C106.111 35.1043 103.669 36.7651 100.315 36.7651C96.5696 36.7651 93.59 34.5345 93.59 29.9429C93.59 26.1328 96.2114 23.0229 100.559 23.0229C104.906 23.0229 107.12 26.3445 107.12 29.7312C107.104 30.122 107.088 30.5616 107.039 31.0012ZM98.0839 28.2984H102.513C102.268 26.7516 101.503 26.0026 100.331 26.0026C99.1748 26.0026 98.3769 26.6864 98.0839 28.2984Z" fill="#23D9B7"/>
<path d="M94.8275 28.2983H91.05V30.9849H94.8275V28.2983Z" fill="#23D9B7"/>
<path d="M79.9781 28.2983H76.9659V30.9849H79.9781V28.2983Z" fill="#23D9B7"/>
<path d="M109.009 28.2983H105.997V30.9849H109.009V28.2983Z" fill="#23D9B7"/>
<path d="M92.8736 48C84.6186 48 80.6294 42.1384 80.4503 41.8942L83.2834 39.9892C83.4137 40.1846 86.491 44.5808 92.8574 44.5808C99.24 44.5808 102.399 40.1683 102.529 39.9729L105.346 41.8942C105.183 42.171 101.112 48 92.8736 48Z" fill="#23D9B7"/>
</svg>
