<svg width="38" height="24" viewBox="0 0 38 24" fill="none" xmlns="http://www.w3.org/2000/svg">
<path opacity="0.07" d="M35 0H3C1.3 0 0 1.3 0 3V21C0 22.7 1.4 24 3 24H35C36.7 24 38 22.7 38 21V3C38 1.3 36.6 0 35 0Z" fill="black"/>
<path d="M35 1C36.1 1 37 1.9 37 3V21C37 22.1 36.1 23 35 23H3C1.9 23 1 22.1 1 21V3C1 1.9 1.9 1 3 1H35Z" fill="white"/>
<path d="M22.3873 17.5028H16.2627V6.49609H22.3873V17.5028Z" fill="#6C6BBD"/>
<path d="M16.6515 12C16.6515 9.76725 17.6969 7.77837 19.3249 6.49666C18.1344 5.55941 16.632 5 14.9991 5C11.1335 5 8 8.13396 8 12C8 15.866 11.1335 19 14.9991 19C16.632 19 18.1344 18.4406 19.3249 17.5033C17.6969 16.2216 16.6515 14.2328 16.6515 12Z" fill="#D32011"/>
<path d="M30.6505 12C30.6505 15.866 27.517 19 23.6514 19C22.0186 19 20.5161 18.4406 19.3252 17.5033C20.9536 16.2216 21.999 14.2328 21.999 12C21.999 9.76725 20.9536 7.77837 19.3252 6.49666C20.5161 5.55941 22.0186 5 23.6514 5C27.517 5 30.6505 8.13396 30.6505 12Z" fill="#0099DF"/>
</svg>
